<svg width="64" height="78" viewBox="0 0 64 78" fill="none" xmlns="http://www.w3.org/2000/svg">
<path fill-rule="evenodd" clip-rule="evenodd" d="M16.5455 5.00466C0.79399 11.1527 -7.33981 32.0762 8.79317 53.1568C56.0814 114.929 100.969 -27.9457 16.5455 5.00466Z" fill="#4D2456"/>
<path d="M20.5732 15.4496C20.5732 13.2731 20.5732 11.1078 20.5732 8.94254C20.5732 7.74211 21.5381 6.63142 22.7385 6.46313C26.1828 5.99193 29.627 5.52073 33.0713 5.04953C34.2717 4.88125 35.2365 5.72268 35.2365 6.92312C35.2365 9.08839 35.2365 11.2649 35.2365 13.4302C35.2365 14.6306 34.2717 15.7413 33.0713 15.8983C30.9845 16.19 28.8978 16.4705 26.7998 16.7622C27.1027 18.7031 27.3944 20.644 27.6861 22.5849C26.295 20.8011 24.9038 19.006 23.5014 17.211C23.2546 17.2559 22.9966 17.2895 22.7385 17.3232C21.5381 17.4802 20.5732 16.65 20.5732 15.4496Z" fill="#4D2456"/>
<path d="M20.2927 15.4496V8.94255C20.2927 8.2694 20.562 7.62992 20.9995 7.13628C21.4371 6.64264 22.0317 6.29485 22.7048 6.2051L33.0376 4.78028C33.1497 4.76906 33.2619 4.75784 33.3629 4.75784C33.9126 4.75784 34.4063 4.94857 34.7877 5.27392C35.158 5.59927 35.416 6.05925 35.4833 6.59777C35.5057 6.69874 35.517 6.81093 35.517 6.92312V13.4302C35.517 14.1033 35.2477 14.7428 34.8102 15.2364C34.3726 15.7301 33.7668 16.0779 33.1049 16.1676L27.1139 16.9978L27.9553 22.5512C27.9778 22.6971 27.8768 22.8317 27.7309 22.8542C27.6188 22.8766 27.5178 22.8205 27.4617 22.7307L23.3892 17.5027L22.7721 17.5924C22.6599 17.6036 22.5478 17.6149 22.4468 17.6149C21.897 17.6149 21.4034 17.4241 21.022 17.0988C20.6517 16.7734 20.3937 16.3135 20.3152 15.7749C20.3039 15.6628 20.2927 15.5618 20.2927 15.4496ZM20.8425 8.94255V15.4496C20.8425 15.5393 20.8425 15.6179 20.8537 15.6964C20.9098 16.1115 21.1005 16.4481 21.381 16.6837C21.6614 16.9305 22.0317 17.0651 22.4468 17.0651C22.5365 17.0651 22.6151 17.0651 22.7048 17.0539L23.4677 16.9417C23.5575 16.9305 23.6584 16.9754 23.7145 17.0539L27.2597 21.5976L26.5305 16.7959C26.5193 16.65 26.6203 16.5154 26.7661 16.493L33.0376 15.6291C33.5649 15.5618 34.0473 15.2813 34.3951 14.8774C34.7541 14.4735 34.9672 13.9687 34.9672 13.4302V6.92312C34.9672 6.83337 34.956 6.74361 34.956 6.66508C34.8999 6.26119 34.7092 5.92462 34.4287 5.6778C34.1482 5.4422 33.778 5.29636 33.3629 5.29636C33.2732 5.29636 33.1946 5.30758 33.1049 5.3188L22.7721 6.73239C22.2448 6.81093 21.7624 7.0914 21.4146 7.49529C21.0556 7.89917 20.8425 8.40403 20.8425 8.94255Z" fill="#FBBE07"/>
<path d="M44.122 20.1167C44.122 17.9514 44.122 15.7749 44.122 13.6097C44.122 12.4092 43.146 11.2761 41.9455 11.0742C38.5013 10.5132 35.057 9.95225 31.6128 9.38008C30.4236 9.18935 29.4475 9.99713 29.4475 11.1976C29.4475 13.3741 29.4475 15.5393 29.4475 17.7046C29.4475 18.905 30.4236 20.0382 31.6128 20.2401C31.8708 20.2738 32.1289 20.3186 32.3869 20.3635C31.7138 21.1825 31.0518 21.9903 30.3899 22.8093C32.1513 22.1698 33.9127 21.5415 35.6853 20.902C37.772 21.2498 39.8588 21.5864 41.9455 21.9342C43.146 22.1249 44.122 21.3171 44.122 20.1167Z" fill="#FBBE07"/>
<path d="M18.1612 37.3155C17.2412 37.3155 16.3998 36.9453 15.6481 36.2272C14.9974 35.5765 14.672 34.8473 14.672 34.0283C14.672 33.2205 14.9525 32.424 15.5023 31.6162L15.6818 31.3133L15.2218 31.0104C14.1672 30.2812 13.6399 29.3949 13.6399 28.3403C13.6399 28.0261 13.6848 27.7008 13.7857 27.3642C14.3467 25.2438 15.7042 23.9087 17.847 23.359C18.1387 23.2917 18.4416 23.2693 18.7333 23.2693C19.3953 23.2693 20.046 23.4263 20.6855 23.7629C21.1791 24.0209 21.5718 24.3912 21.8747 24.8624C22.1327 25.3784 22.2561 25.8609 22.2561 26.3208C22.2561 26.9603 21.9869 27.5437 21.4259 28.0373C20.7303 28.6656 19.9113 28.9797 18.9577 28.9797C18.3855 28.9797 17.9256 28.8002 17.5778 28.4412C17.3534 28.1832 17.2412 27.9139 17.2412 27.6447C17.2412 27.1623 17.4992 26.8257 18.0041 26.6574C18.0826 26.6237 18.1724 26.6125 18.2509 26.6125C18.4304 26.6125 18.5987 26.6686 18.767 26.7696C18.9353 26.8706 19.0811 26.9154 19.227 26.9154C19.4514 26.9154 19.687 26.8257 19.9338 26.635C20.1245 26.4891 20.2255 26.3433 20.2255 26.175C20.2255 26.0291 20.1469 25.8833 19.9899 25.7262C19.6084 25.4121 19.2045 25.255 18.767 25.255C18.5987 25.255 18.4304 25.2775 18.2509 25.3223C16.9495 25.7038 16.1305 26.5452 15.7715 27.8354C15.7379 27.9925 15.7154 28.1383 15.7154 28.2617C15.7154 29.0471 16.2764 29.5183 17.3983 29.6865C17.9368 29.7651 18.2846 29.8324 18.4529 29.8773C18.8455 30.0456 19.0699 30.2363 19.1036 30.4382C19.1372 30.6402 19.1597 30.7748 19.1597 30.8197C19.1597 31.2572 18.8792 31.6162 18.3295 31.8855C17.7236 32.1772 17.2636 32.5923 16.9607 33.1308C16.7812 33.4449 16.6915 33.7366 16.6915 34.0171C16.6915 34.219 16.77 34.4434 16.9383 34.6678C17.2749 35.0829 17.6787 35.2849 18.1499 35.2849C18.2846 35.2849 18.4416 35.2736 18.5875 35.24C19.5748 34.9034 20.0572 34.3761 20.0572 33.6581L20.046 33.3215C20.1133 32.6708 20.4499 32.3342 21.0332 32.3118C21.2576 32.3118 21.4708 32.3903 21.6615 32.5362C21.9308 32.7606 22.0654 33.142 22.0654 33.6581C22.0654 33.8713 22.043 34.0844 21.9981 34.2976C21.6503 35.7448 20.7752 36.6872 19.3504 37.1136C18.9353 37.2482 18.5426 37.3155 18.1612 37.3155ZM24.3653 37.4165C24.2419 37.4165 24.1073 37.394 23.9614 37.3492C23.5351 37.1809 23.3219 36.878 23.3219 36.4404C23.3219 36.1038 24.0399 34.3873 25.4648 31.3133C23.9726 27.7344 23.1424 25.8384 23.0078 25.6365C22.8171 25.3336 22.7273 25.0643 22.7273 24.8287C22.7273 24.537 22.8507 24.2902 23.0975 24.077C23.2995 23.9312 23.5239 23.8526 23.7707 23.8526C24.2419 23.8751 24.6233 24.2004 24.9262 24.8399C25.4872 26.1526 26.0482 27.4764 26.5867 28.8002C26.7886 28.5198 27.4057 27.2296 28.4266 24.9297C28.6734 24.2902 29.0212 23.9761 29.4924 23.9761C29.6719 23.9761 29.8402 24.0322 30.0085 24.1331C30.3226 24.3351 30.4685 24.6043 30.4685 24.9297C30.4685 25.1877 30.3675 25.5467 30.1543 25.9843C29.4139 27.5774 28.6173 29.3612 27.7534 31.347L29.3914 34.6902C29.7392 35.3746 29.9187 35.8458 29.9187 36.1263C29.9187 36.4853 29.7392 36.777 29.3914 36.9677C29.2231 37.0462 29.0661 37.0799 28.9314 37.0799C28.5837 37.0799 28.292 36.8892 28.0451 36.4965C27.7871 36.0365 27.5403 35.5653 27.3271 35.0941C27.1027 34.6229 26.8671 34.1517 26.6091 33.6917C25.835 35.4083 25.4311 36.3394 25.3974 36.4741C25.117 37.1023 24.7692 37.4165 24.3653 37.4165ZM37.7608 38.2691C37.4243 38.2579 37.1774 38.1457 36.9979 37.9438C36.8184 37.7306 36.7287 37.4726 36.7175 37.1472L36.695 35.6439C36.1902 35.8121 35.6741 35.958 35.1692 36.1038C34.8663 36.1824 34.5297 36.2272 34.182 36.2272C33.879 36.2272 33.5761 36.1936 33.2732 36.1263C32.084 35.8234 31.4782 35.1278 31.4782 34.0171C31.4782 33.602 31.6016 33.1757 31.8596 32.7493C32.6225 31.605 33.9127 30.9655 35.7414 30.8421L36.9643 30.786C36.9979 30.3821 37.0092 29.9895 37.0092 29.5968C36.9418 27.0052 36.5604 25.715 35.8648 25.715C35.6068 25.715 35.3039 25.8609 34.9561 26.175C33.9127 27.0725 33.161 28.1832 32.6898 29.4846C32.4879 30.1802 32.1289 30.5168 31.6016 30.5168C31.5343 30.5168 31.4669 30.5168 31.4109 30.5055C30.9172 30.3485 30.6704 30.0007 30.6704 29.4734C30.6704 29.2827 30.6928 29.1032 30.7601 28.9237C31.3211 27.2296 32.2747 25.816 33.6322 24.6716C34.4288 24.0209 35.2029 23.6844 35.9546 23.6731C36.7175 23.6731 37.3794 24.0209 37.9403 24.7165C38.6696 25.7711 39.0398 27.353 39.0398 29.4734C39.0398 29.8997 38.9613 31.7621 38.8266 35.0717C38.8042 35.9804 38.7593 36.7209 38.7145 37.2931C38.6247 37.9213 38.2993 38.2467 37.7608 38.2691ZM34.0698 34.2078L34.2829 34.1854C35.1917 34.0844 36.0219 33.8713 36.7623 33.5683L36.7848 32.9176C36.4819 32.8615 36.235 32.8391 36.078 32.8391C35.4273 32.8391 34.799 32.9849 34.2156 33.2654C33.8229 33.4786 33.6322 33.703 33.6322 33.9273C33.6322 34.1069 33.7781 34.2078 34.0698 34.2078ZM50.4383 36.934C49.8437 36.9116 49.5296 36.5863 49.4959 35.958C49.4959 34.8697 49.552 33.142 49.653 30.7524L49.6755 29.6641C49.6755 28.6432 49.5969 28.1271 49.4286 28.1271C49.036 28.1271 48.5984 29.7539 48.0936 33.0186L47.8131 34.9371C47.7009 35.6663 47.3419 36.0365 46.7697 36.0365C46.1078 35.9804 45.7712 35.5653 45.7712 34.7688C45.659 29.3163 45.4459 26.5789 45.1542 26.5789C44.9859 26.5789 44.7615 26.9603 44.481 27.7344C43.864 29.4622 43.5162 32.065 43.4152 35.5541C43.3816 36.3843 43.045 36.8219 42.4055 36.8892C41.9007 36.8892 41.5641 36.6536 41.3958 36.1712C41.2724 35.7336 41.1826 35.2961 41.1153 34.8473C40.4871 31.706 40.1056 28.7329 39.971 25.9394C39.971 25.715 40.0159 25.5018 40.0944 25.2775C40.1729 25.0643 40.2963 24.896 40.4646 24.7838C40.6329 24.6716 40.8124 24.6155 41.0031 24.6155C41.5529 24.638 41.867 24.9409 41.9568 25.5355L42.2484 28.6432C42.9104 26.6013 43.4264 25.356 43.7855 24.896C44.223 24.4024 44.6942 24.1556 45.2103 24.1556C45.8049 24.1668 46.3097 24.4809 46.7024 25.1092C46.9717 25.6028 47.2185 26.3545 47.4429 27.3642C47.6672 26.9267 47.8692 26.5789 48.0599 26.3208C48.5311 25.5243 49.0584 25.1316 49.6418 25.1316C50.1467 25.1316 50.573 25.356 50.9208 25.8048C51.291 26.3994 51.4929 27.0501 51.5154 27.7569C51.5715 28.43 51.5939 29.1705 51.5939 29.9895C51.5827 31.8294 51.5603 33.6132 51.5154 35.3185C51.5154 36.3955 51.1564 36.934 50.4383 36.934Z" fill="white"/>
<path d="M18.6099 56.5337C18.1835 56.5337 17.8357 56.3093 17.544 55.8606C17.4431 55.6362 17.3758 55.423 17.3421 55.1987C16.6465 52.6631 16.2987 50.0155 16.2987 47.2444C16.2987 45.5166 16.3997 43.6991 16.6016 41.8031L16.0295 41.747C15.3788 41.5675 15.031 41.1748 15.0085 40.5578C15.0085 39.5369 16.1304 39.032 18.3743 39.032C19.1596 39.032 19.9449 39.1218 20.7303 39.3125C23.075 39.9969 24.5784 41.5339 25.2291 43.9011C25.3188 44.3162 25.3637 44.7201 25.3637 45.124C25.3637 45.8532 25.2179 46.5712 24.9262 47.2668C23.9726 49.5555 22.357 51.171 20.0796 52.1022C19.8664 52.2032 19.6084 52.3266 19.283 52.4724C19.6644 54.245 19.8552 55.1762 19.8552 55.266C19.8552 55.5464 19.7766 55.7933 19.6196 56.0064C19.3728 56.3542 19.0362 56.5337 18.6099 56.5337ZM19.025 49.8023C19.1035 49.7911 19.182 49.7574 19.2606 49.7125C20.7078 49.1179 21.7624 48.1194 22.4356 46.7058C22.716 46.1224 22.8507 45.5615 22.8507 45.0454C22.8507 44.0806 22.4019 43.2167 21.4932 42.465C20.8649 41.8929 20.1356 41.6124 19.3054 41.6124C19.1484 42.1958 19.025 43.0372 18.924 44.1591C18.8342 45.2698 18.7894 46.3693 18.7894 47.4463C18.7894 48.5233 18.8342 49.2974 18.9352 49.7799L19.025 49.8023ZM34.6755 57.1059C34.2604 57.0835 33.9463 56.9488 33.7331 56.702C33.5087 56.444 33.3966 56.1186 33.3853 55.7259L33.3629 53.8636C32.7346 54.0767 32.1064 54.2563 31.4781 54.4358C31.0967 54.5367 30.6928 54.5928 30.2552 54.5928C29.8962 54.5928 29.526 54.5479 29.1445 54.4582C27.6748 54.0992 26.9344 53.2241 26.9344 51.8554C26.9344 51.3505 27.0915 50.8344 27.3944 50.3071C28.3368 48.8936 29.9411 48.1082 32.1737 47.9512L33.6882 47.8838C33.7331 47.3902 33.7556 46.8966 33.7556 46.4141C33.6658 43.2279 33.1946 41.6348 32.3307 41.6348C32.0166 41.6348 31.6352 41.8256 31.2201 42.1958C29.9411 43.3065 28.9987 44.664 28.4153 46.2907C28.1685 47.1322 27.7309 47.5585 27.0915 47.5585C27.0017 47.5585 26.9232 47.5473 26.8446 47.536C26.2388 47.3453 25.9247 46.919 25.9247 46.2683C25.9247 46.0327 25.9695 45.8083 26.0369 45.5839C26.7437 43.5084 27.9217 41.7582 29.5821 40.3446C30.5694 39.5369 31.523 39.133 32.4429 39.1218C33.3853 39.1218 34.2043 39.5481 34.8887 40.412C35.7862 41.7021 36.2462 43.6543 36.2462 46.2683C36.2462 46.7844 36.1564 49.0955 35.9769 53.168C35.9545 54.2899 35.9096 55.1987 35.8535 55.9055C35.7301 56.6683 35.3374 57.0722 34.6755 57.1059ZM30.1206 52.1022L30.3899 52.0798C31.5118 51.9451 32.5327 51.6871 33.4414 51.3169L33.4639 50.4979C33.0936 50.4418 32.8019 50.4193 32.5888 50.4193C31.7922 50.4193 31.0293 50.5876 30.3001 50.9354C29.8177 51.2047 29.5821 51.4739 29.5821 51.7432C29.5821 51.9788 29.7616 52.1022 30.1206 52.1022ZM40.4197 55.5464C39.4436 55.5464 38.8266 55.0416 38.5573 54.0207C38.1759 52.349 37.9851 50.4754 37.9739 48.4111C37.9739 46.56 38.0749 44.6976 38.2993 42.8353C38.3554 42.5436 38.389 42.2182 38.389 41.848L38.03 41.8704C37.054 41.8704 36.5603 41.4665 36.5491 40.67C36.5491 40.1315 36.8184 39.75 37.3569 39.5144C37.6374 39.391 38.1759 39.3349 38.9724 39.3349C41.306 39.3349 43.3703 40.1203 45.1765 41.7021C46.8145 43.127 47.6223 44.821 47.6223 46.7844C47.6223 47.3565 47.5662 47.9512 47.4316 48.557C46.837 51.0588 45.4682 53.0558 43.3478 54.5255C42.4728 55.1313 41.4967 55.4791 40.4197 55.5464ZM40.9245 52.9548C43.2469 52.1022 44.638 50.3408 45.0868 47.6595C45.1317 47.3678 45.1541 47.0985 45.1541 46.8292C45.1541 45.5952 44.6605 44.5293 43.6732 43.643C42.9327 42.9923 42.0016 42.5099 40.9021 42.2182C40.6104 43.9796 40.4646 45.7522 40.4646 47.536C40.4646 49.3423 40.6104 51.1486 40.9245 52.9548ZM51.2124 56.0064C50.4046 56.0064 49.911 55.3669 49.6978 54.088C49.3276 51.6647 49.1256 49.1516 49.1144 46.5263C49.1144 44.7088 49.2939 43.6318 49.6642 43.3177C49.8885 43.127 50.1578 43.026 50.4719 43.026C51.2573 43.0484 51.6499 43.5084 51.6724 44.4059C51.6948 45.124 51.7172 45.8532 51.7172 46.5936V47.1209C51.7172 49.7574 51.9192 52.1807 52.3455 54.4133C52.3792 54.5704 52.3904 54.7162 52.3904 54.8509C52.3904 55.4006 52.1211 55.7708 51.5826 55.9615C51.448 55.9952 51.3246 56.0064 51.2124 56.0064ZM50.7748 41.9826C50.2588 41.9714 49.8661 41.7134 49.5744 41.2197C49.451 40.9841 49.3949 40.7485 49.3949 40.5129C49.3949 39.9183 49.6417 39.4583 50.1129 39.1218C50.3373 38.9759 50.5617 38.8974 50.7973 38.8974C50.988 38.8974 51.1787 38.9535 51.3582 39.0545C51.8407 39.3013 52.0875 39.7613 52.0875 40.4344C52.065 40.8383 51.9865 41.1412 51.8407 41.3431C51.549 41.7695 51.2012 41.9826 50.7748 41.9826Z" fill="#FBBE07"/>
<path d="M35.9096 13.6994C35.7638 13.6658 35.6628 13.5311 35.6853 13.3853C35.7077 13.2394 35.8535 13.1385 35.9994 13.1609L41.0031 13.9799C41.1489 14.0023 41.2499 14.137 41.2275 14.294C41.205 14.4399 41.0592 14.5408 40.9133 14.5184L35.9096 13.6994Z" fill="#4D2456"/>
<path d="M31.8259 15.4496C31.68 15.4272 31.579 15.2813 31.6127 15.1355C31.6351 14.9896 31.781 14.8886 31.9268 14.9223L41.003 16.5603C41.1489 16.5827 41.2499 16.7173 41.2274 16.8744C41.1938 17.0203 41.0591 17.11 40.9133 17.0876L31.8259 15.4496Z" fill="#4D2456"/>
<path d="M31.8259 18.03C31.68 18.0075 31.579 17.8617 31.6127 17.7158C31.6351 17.57 31.781 17.469 31.9268 17.4915L41.003 19.1294C41.1489 19.1631 41.2499 19.2977 41.2274 19.4436C41.1938 19.5894 41.0591 19.6904 40.9133 19.668L31.8259 18.03Z" fill="#4D2456"/>
<path d="M33.06 8.02259C33.2058 8.00015 33.3405 8.10112 33.3629 8.24697C33.3853 8.40404 33.2844 8.53867 33.1273 8.56111L23.0526 9.9747C22.9068 9.99714 22.7721 9.89617 22.7497 9.75032C22.7273 9.60448 22.8282 9.45863 22.9853 9.43619L33.06 8.02259Z" fill="#FBBE07"/>
<path d="M28.09 11.2649C28.2358 11.2537 28.3704 11.3546 28.3929 11.5005C28.4153 11.6463 28.3143 11.781 28.1685 11.8034L23.0526 12.5551C22.9068 12.5775 22.7721 12.4765 22.7497 12.3307C22.7273 12.1736 22.8282 12.039 22.9741 12.0166L28.09 11.2649Z" fill="#FBBE07"/>
<path d="M26.3061 14.0584C26.4632 14.036 26.5978 14.137 26.6203 14.2828C26.6427 14.4286 26.5417 14.5745 26.3959 14.5969L23.0638 15.1354C22.918 15.1579 22.7721 15.0569 22.7497 14.9111C22.7273 14.754 22.8282 14.6194 22.9741 14.5969L26.3061 14.0584Z" fill="#FBBE07"/>
<path d="M17.6899 75.4827V75.292C17.6899 74.5964 17.4655 74.0242 16.8597 74.0242C16.2987 74.0242 15.9509 74.5964 15.9509 75.4154C15.9509 76.268 16.2875 76.7841 16.8597 76.7841C17.2411 76.7841 17.4879 76.5485 17.6113 76.2344L17.3533 76.0885C17.2748 76.3017 17.1289 76.47 16.8709 76.47C16.4894 76.47 16.2987 76.0549 16.2987 75.4827H17.6899ZM17.3421 75.191H16.2987C16.2987 74.8881 16.4446 74.3271 16.8485 74.3271C17.185 74.3271 17.3421 74.6749 17.3421 75.191ZM19.7766 76.7056L19.0698 75.3368L19.6981 74.114H19.3166L18.8679 75.09L18.4191 74.114H18.0265L18.6659 75.3368L17.9704 76.7056H18.3518L18.8679 75.6173L19.384 76.7056H19.7766ZM21.6502 76.7056C21.639 76.5934 21.6278 76.2905 21.6278 76.1558V75.0676C21.6278 74.3944 21.4146 74.0242 20.8649 74.0242C20.618 74.0242 20.3264 74.1588 20.1693 74.3832L20.3488 74.6076C20.4722 74.4393 20.6405 74.3271 20.8424 74.3271C21.1229 74.3271 21.3024 74.5291 21.3024 74.9778V75.1125H21.1005C20.6741 75.1125 20.0795 75.2583 20.0795 76.01C20.0795 76.5485 20.4049 76.7729 20.6966 76.7729C21.0332 76.7729 21.2463 76.5822 21.3248 76.2231H21.3361C21.3361 76.3466 21.3361 76.5934 21.3473 76.7056H21.6502ZM21.3136 75.5612C21.3136 75.9651 21.179 76.4924 20.7863 76.4924C20.5956 76.4924 20.4049 76.3353 20.4049 75.9763C20.4049 75.4827 20.7639 75.3817 21.1005 75.3817H21.3136V75.5612ZM22.7384 74.6188H22.7272C22.7272 74.4505 22.7272 74.2374 22.716 74.114H22.3794C22.3907 74.2149 22.4019 74.5403 22.4019 74.7647V76.7056H22.7384V75.2134C22.7384 74.7422 22.9404 74.3271 23.277 74.3271C23.636 74.3271 23.6808 74.7086 23.6808 75.0339V76.7056H24.0286V75.2134C24.0286 74.7422 24.2194 74.3271 24.5672 74.3271C24.9262 74.3271 24.971 74.7086 24.971 75.0339V76.7056H25.3188V75.0339C25.3188 74.5515 25.2291 74.0242 24.6681 74.0242C24.2979 74.0242 24.0735 74.3159 23.9838 74.6188H23.9725C23.9277 74.3047 23.7706 74.0242 23.3892 74.0242C23.0414 74.0242 22.817 74.271 22.7384 74.6188ZM27.3046 74.3383C27.17 74.1476 26.9568 74.0242 26.6651 74.0242C26.2612 74.0242 25.9471 74.3271 25.9471 74.7647C25.9471 75.2134 26.2051 75.3817 26.4632 75.4715C26.71 75.5724 26.9456 75.6734 26.9456 76.01C26.9456 76.3017 26.7773 76.4924 26.5417 76.4924C26.3173 76.4924 26.149 76.369 26.0368 76.1895L25.8349 76.4139C25.992 76.6382 26.25 76.7841 26.5417 76.7841C26.968 76.7841 27.2822 76.4924 27.2822 75.9875C27.2822 75.5276 26.9792 75.3368 26.6988 75.2246C26.4183 75.1237 26.2837 75.0227 26.2837 74.7534C26.2837 74.4842 26.4407 74.3047 26.6651 74.3047C26.8558 74.3047 27.0017 74.4057 27.0914 74.5627L27.3046 74.3383ZM29.2567 73.3174C29.2567 73.1716 29.167 73.0594 29.0323 73.0594C28.9089 73.0594 28.8079 73.1716 28.8079 73.3174C28.8079 73.4633 28.9089 73.5642 29.0323 73.5642C29.167 73.5642 29.2567 73.4633 29.2567 73.3174ZM29.2118 77.087V74.114H28.864V77.0646C28.864 77.3675 28.7967 77.6367 28.5275 77.6367C28.4826 77.6367 28.4153 77.6367 28.3704 77.6143L28.3367 77.9284C28.4041 77.9509 28.4826 77.9621 28.5499 77.9621C29.0211 77.9621 29.2118 77.6143 29.2118 77.087ZM29.9859 74.114V75.7856C29.9859 76.268 30.0757 76.7841 30.6367 76.7841C30.9732 76.7841 31.1976 76.5485 31.2986 76.2007H31.3098C31.3098 76.369 31.321 76.5709 31.3322 76.7056H31.6688C31.6576 76.6046 31.6464 76.268 31.6464 76.0549V74.114H31.2986V75.6061C31.2986 76.0773 31.0854 76.4812 30.7376 76.4812C30.3898 76.4812 30.3337 76.0997 30.3337 75.7856V74.114H29.9859ZM33.6658 74.3383C33.5312 74.1476 33.318 74.0242 33.0263 74.0242C32.6224 74.0242 32.3083 74.3271 32.3083 74.7647C32.3083 75.2134 32.5663 75.3817 32.8244 75.4715C33.0712 75.5724 33.3068 75.6734 33.3068 76.01C33.3068 76.3017 33.1385 76.4924 32.9029 76.4924C32.6785 76.4924 32.5215 76.369 32.398 76.1895L32.1961 76.4139C32.3532 76.6382 32.6112 76.7841 32.9029 76.7841C33.3292 76.7841 33.6434 76.4924 33.6434 75.9875C33.6434 75.5276 33.3404 75.3368 33.06 75.2246C32.7795 75.1237 32.6449 75.0227 32.6449 74.7534C32.6449 74.4842 32.8019 74.3047 33.0263 74.3047C33.217 74.3047 33.3741 74.4057 33.4526 74.5627L33.6658 74.3383ZM35.0906 76.7056L35.0794 76.4251C35.0233 76.4475 34.9448 76.47 34.8887 76.47C34.6979 76.47 34.6194 76.3353 34.6194 76.0212V74.3944H35.0794V74.114H34.6194V73.3959H34.2716V74.114H33.9351V74.3944H34.2828V76.0885C34.2828 76.5036 34.4175 76.7729 34.7765 76.7729C34.8887 76.7729 35.0121 76.7392 35.0906 76.7056ZM38.1534 76.6719V74.114H37.8168V74.5515H37.8056C37.7271 74.2374 37.5027 74.0242 37.1886 74.0242C36.6501 74.0242 36.3696 74.5964 36.3696 75.3929C36.3696 76.2007 36.6613 76.7841 37.1886 76.7841C37.5476 76.7841 37.7271 76.5485 37.8056 76.2344H37.8168V76.6719C37.8168 77.2329 37.7046 77.648 37.2447 77.648C36.9866 77.648 36.7622 77.5021 36.6276 77.289L36.4032 77.5246C36.5715 77.7938 36.8969 77.9621 37.2334 77.9621C37.9515 77.9621 38.1534 77.4011 38.1534 76.6719ZM37.8168 75.4042C37.8168 76.01 37.6373 76.4812 37.2671 76.4812C36.8857 76.4812 36.7174 76.01 36.7174 75.4042C36.7174 74.7983 36.8857 74.3271 37.2671 74.3271C37.6373 74.3271 37.8168 74.7983 37.8168 75.4042ZM40.6104 75.4154C40.6104 74.5852 40.2738 74.0242 39.7129 74.0242C39.1295 74.0242 38.8041 74.5852 38.8041 75.4154C38.8041 76.2344 39.1519 76.7841 39.7129 76.7841C40.2738 76.7841 40.6104 76.2344 40.6104 75.4154ZM40.2626 75.4042C40.2626 76.01 40.0831 76.4812 39.7129 76.4812C39.3314 76.4812 39.1631 76.01 39.1631 75.4042C39.1631 74.7983 39.3314 74.3271 39.7129 74.3271C40.0831 74.3271 40.2626 74.7983 40.2626 75.4042ZM42.1025 76.7056L42.0913 76.4251C42.0464 76.4475 41.9679 76.47 41.9006 76.47C41.7211 76.47 41.6313 76.3353 41.6313 76.0212V74.3944H42.0913V74.114H41.6313V73.3959H41.2947V74.114H40.9582V74.3944H41.2947V76.0885C41.2947 76.5036 41.4294 76.7729 41.7884 76.7729C41.9118 76.7729 42.0352 76.7392 42.1025 76.7056ZM45.1317 75.4827V75.292C45.1317 74.5964 44.9073 74.0242 44.2902 74.0242C43.7293 74.0242 43.3815 74.5964 43.3815 75.4154C43.3815 76.268 43.7181 76.7841 44.3014 76.7841C44.6829 76.7841 44.9297 76.5485 45.0531 76.2344L44.7951 76.0885C44.7053 76.3017 44.5595 76.47 44.3127 76.47C43.92 76.47 43.7405 76.0549 43.7293 75.4827H45.1317ZM44.7839 75.191H43.7405C43.7405 74.8881 43.8863 74.3271 44.279 74.3271C44.6268 74.3271 44.7839 74.6749 44.7839 75.191ZM47.1062 76.7056C47.095 76.5934 47.0838 76.2905 47.0838 76.1558V75.0676C47.0838 74.3944 46.8706 74.0242 46.3321 74.0242C46.0741 74.0242 45.7824 74.1588 45.6253 74.3832L45.816 74.6076C45.9282 74.4393 46.1077 74.3271 46.2984 74.3271C46.5789 74.3271 46.7584 74.5291 46.7584 74.9778V75.1125H46.5565C46.1301 75.1125 45.5355 75.2583 45.5355 76.01C45.5355 76.5485 45.8721 76.7729 46.1526 76.7729C46.4892 76.7729 46.7023 76.5822 46.7809 76.2231H46.7921C46.7921 76.3466 46.8033 76.5934 46.8145 76.7056H47.1062ZM46.7696 75.5612C46.7696 75.9651 46.6462 76.4924 46.2423 76.4924C46.0516 76.4924 45.8609 76.3353 45.8609 75.9763C45.8609 75.4827 46.2199 75.3817 46.5565 75.3817H46.7696V75.5612ZM49.0247 74.3383C48.9013 74.1476 48.6881 74.0242 48.3852 74.0242C47.9925 74.0242 47.6784 74.3271 47.6784 74.7647C47.6784 75.2134 47.9252 75.3817 48.1945 75.4715C48.4413 75.5724 48.6769 75.6734 48.6769 76.01C48.6769 76.3017 48.5086 76.4924 48.273 76.4924C48.0486 76.4924 47.8803 76.369 47.7681 76.1895L47.555 76.4139C47.712 76.6382 47.9813 76.7841 48.2618 76.7841C48.6993 76.7841 49.0022 76.4924 49.0022 75.9875C49.0022 75.5276 48.7105 75.3368 48.4301 75.2246C48.1496 75.1237 48.0037 75.0227 48.0037 74.7534C48.0037 74.4842 48.172 74.3047 48.3852 74.3047C48.5871 74.3047 48.733 74.4057 48.8227 74.5627L49.0247 74.3383ZM50.0119 73.3174C50.0119 73.1716 49.9222 73.0594 49.7876 73.0594C49.6529 73.0594 49.552 73.1716 49.552 73.3174C49.552 73.4633 49.6529 73.5642 49.7876 73.5642C49.911 73.5642 50.0119 73.4633 50.0119 73.3174ZM49.9558 76.7056V74.114H49.6193V76.7056H49.9558ZM52.3567 75.4827V75.292C52.3567 74.5964 52.1323 74.0242 51.5153 74.0242C50.9543 74.0242 50.6065 74.5964 50.6065 75.4154C50.6065 76.268 50.9431 76.7841 51.5265 76.7841C51.908 76.7841 52.1548 76.5485 52.2782 76.2344L52.0201 76.0885C51.9304 76.3017 51.7845 76.47 51.5377 76.47C51.1451 76.47 50.9656 76.0549 50.9543 75.4827H52.3567ZM52.0089 75.191H50.9656C50.9656 74.8881 51.1114 74.3271 51.5041 74.3271C51.8519 74.3271 52.0089 74.6749 52.0089 75.191ZM53.344 74.6749H53.3328C53.3328 74.4505 53.3216 74.2374 53.3103 74.114H52.9738C52.985 74.2149 52.9962 74.5403 52.9962 74.7647V76.7056H53.344V75.3817C53.344 74.8993 53.5347 74.3832 53.8825 74.3832C53.9162 74.3832 53.9386 74.3832 53.9723 74.3944V74.0354C53.961 74.0354 53.9386 74.0354 53.9162 74.0354C53.6581 74.0354 53.4337 74.2262 53.344 74.6749Z" fill="#4D2456"/>
</svg>
