<svg xmlns="http://www.w3.org/2000/svg" xmlns:xlink="http://www.w3.org/1999/xlink" id="Layer_1" x="0px" y="0px" width="369px" height="560px" viewBox="27.75 0 369 560" xml:space="preserve"><title>Nigeria-Logo</title><g>	<path fill="#CDA453" d="M304.915,351.419c-7.666,68.885-19.996,143.083-29.834,171.202c0,0-26.971,17.913-63.578,17.111   c-42.695,0.696-66.936-18.88-66.936-18.88c1.83,0.827,3.743,1.457,5.705,1.881c8.994,5.472,29.962,15.666,60.673,15.167   c35.89,0.786,62.335-16.776,62.335-16.776c9.366-26.748,21.032-96.021,28.57-161.809   C302.877,356.721,303.899,354.089,304.915,351.419z"></path>	<path fill="#FFFFFF" stroke="#FFFFFF" stroke-width="2" stroke-miterlimit="10" d="M307.761,346.676   c-7.666,71.544-19.996,148.605-29.834,177.809c0,0-26.971,18.605-63.578,17.772c-42.695,0.723-66.936-19.609-66.936-19.609   c1.83,0.859,3.743,1.513,5.705,1.953c8.994,5.683,29.962,16.271,60.673,15.752c35.89,0.817,62.335-17.424,62.335-17.424   c9.366-27.78,21.032-99.727,28.57-168.054C305.723,352.182,306.745,349.449,307.761,346.676z"></path>			<linearGradient id="SVGID_1_" gradientUnits="userSpaceOnUse" x1="-871.7463" y1="-377.2109" x2="-601.0713" y2="-377.2109" gradientTransform="matrix(0.56 0 0 -0.56 638.45 237.38)">		<stop offset="0" style="stop-color:#020F58"></stop>		<stop offset="0.18" style="stop-color:#02125C"></stop>		<stop offset="0.34" style="stop-color:#031B67"></stop>		<stop offset="0.51" style="stop-color:#042B7B"></stop>		<stop offset="0.67" style="stop-color:#064196"></stop>		<stop offset="0.84" style="stop-color:#095DB9"></stop>		<stop offset="1" style="stop-color:#0C7FE3"></stop>		<stop offset="1" style="stop-color:#0C80E4"></stop>	</linearGradient>	<path fill="url(#SVGID_1_)" d="M301.85,359.313c-7.538,65.788-19.204,135.088-28.57,161.809c0,0-26.445,17.563-62.335,16.776   c-30.711,0.499-51.679-9.695-60.673-15.167C169.636,527.301,235.392,528.039,301.85,359.313z"></path>	<path fill="#CDA453" stroke="#CCA256" stroke-miterlimit="10" d="M209.107,46.452c0,0-1.254,0.951-3.506,2.959   c-30.828,0.972-93.976,8.314-93.976,8.314c-4.537,62.835-4.361,142.313-4.075,173.714c-0.985,3.542-1.948,7.138-2.89,10.789   c-1.413,5.477-1.881-107.214,3.905-187.346C108.565,54.888,181.929,46.34,209.107,46.452z"></path>	<path fill="#FFFFFF" stroke="#FFFFFF" stroke-width="3" stroke-miterlimit="10" d="M209.57,42.158c0,0-1.301,1.072-3.638,3.336   c-31.989,1.096-97.517,9.374-97.517,9.374c-4.708,70.844-4.526,160.454-4.228,195.858c-1.022,3.993-2.021,8.048-2.999,12.165   c-1.466,6.175-1.951-120.881,4.052-211.227C105.24,51.669,181.368,42.032,209.57,42.158z"></path>			<linearGradient id="SVGID_2_" gradientUnits="userSpaceOnUse" x1="-796.9399" y1="342.6614" x2="-974.2307" y2="129.9106" gradientTransform="matrix(0.56 0 0 -0.56 638.45 237.38)">		<stop offset="0" style="stop-color:#0C80E4"></stop>		<stop offset="0.24" style="stop-color:#0858B2"></stop>		<stop offset="0.47" style="stop-color:#06388B"></stop>		<stop offset="0.68" style="stop-color:#04226F"></stop>		<stop offset="0.86" style="stop-color:#02145E"></stop>		<stop offset="1" style="stop-color:#020F58"></stop>	</linearGradient>	<path fill="url(#SVGID_2_)" d="M205.6,49.411c-13.833,12.314-65.438,64.46-98.05,182.028   c-0.287-31.391-0.462-110.869,4.075-173.714C111.625,57.725,174.773,50.383,205.6,49.411z"></path>			<ellipse transform="matrix(0.9716 0.2368 -0.2368 0.9716 70.4687 -42.5202)" fill="#FFFFFF" cx="212.25" cy="272.107" rx="112.324" ry="260.382"></ellipse>			<linearGradient id="SVGID_3_" gradientUnits="userSpaceOnUse" x1="-458.0035" y1="277.8153" x2="-869.7499" y2="-108.0427" gradientTransform="matrix(0.56 0 0 -0.56 638.45 237.38)">		<stop offset="0" style="stop-color:#020F58"></stop>		<stop offset="0.1" style="stop-color:#02125B"></stop>		<stop offset="0.19" style="stop-color:#031A65"></stop>		<stop offset="0.26" style="stop-color:#042776"></stop>		<stop offset="0.34" style="stop-color:#063B8E"></stop>		<stop offset="0.41" style="stop-color:#0854AD"></stop>		<stop offset="0.47" style="stop-color:#0B72D2"></stop>		<stop offset="0.5" style="stop-color:#0C80E4"></stop>		<stop offset="0.57" style="stop-color:#0C7CDF"></stop>		<stop offset="0.67" style="stop-color:#0B6FD0"></stop>		<stop offset="0.77" style="stop-color:#095BB6"></stop>		<stop offset="0.87" style="stop-color:#073F94"></stop>		<stop offset="0.98" style="stop-color:#031B67"></stop>		<stop offset="1" style="stop-color:#031560"></stop>	</linearGradient>	<path fill="url(#SVGID_3_)" d="M155.271,144.316c0,0,44.571-69.114,86.639-69.114s54.229,53.804,54.229,105.716   c2.061,53.841-19.656,137.102-47.875,203.331c0,0,70.431-109.031,70.431-238.265c0-52.199-17.196-109.509-54.914-109.509   C209.627,36.475,155.271,144.316,155.271,144.316z"></path>			<linearGradient id="SVGID_4_" gradientUnits="userSpaceOnUse" x1="-956.2682" y1="-182.0407" x2="-555.4634" y2="-182.0407" gradientTransform="matrix(0.56 0 0 -0.56 638.45 237.38)">		<stop offset="0.1" style="stop-color:#D2AE66"></stop>		<stop offset="0.17" style="stop-color:#CDA453"></stop>		<stop offset="0.36" style="stop-color:#F2E8D3"></stop>		<stop offset="0.39" style="stop-color:#F8F2E6"></stop>		<stop offset="0.48" style="stop-color:#F0E3CA"></stop>		<stop offset="0.65" style="stop-color:#E1C897"></stop>		<stop offset="0.8" style="stop-color:#D6B472"></stop>		<stop offset="0.92" style="stop-color:#CFA85B"></stop>		<stop offset="1" style="stop-color:#CDA453"></stop>	</linearGradient>	<path fill="url(#SVGID_4_)" d="M104.788,338.813c0,38.116,10.253,124.432,60.481,124.432c95.734,0,153.426-220.994,161.836-294.741   c5.456,86.06-67.908,341.638-168.933,341.638C87.581,510.142,104.788,338.813,104.788,338.813z"></path>			<radialGradient id="SVGID_5_" cx="-793.6451" cy="-30.1442" r="140.7492" gradientTransform="matrix(0.56 0 0 -0.56 638.45 237.38)" gradientUnits="userSpaceOnUse">		<stop offset="0" style="stop-color:#0C80E4"></stop>		<stop offset="1" style="stop-color:#020F58"></stop>	</radialGradient>	<path fill="url(#SVGID_5_)" d="M263.574,253.22c0,0,10.205-8.957,11.246-18.12c2.534-22.312-25.622-53.124-67.897-53.124v153.091   c0,0,66.856-2.693,72.068-58.107C280.499,260.907,263.574,253.22,263.574,253.22z M230.871,212.931   c14.721,0,23.619,10.433,23.619,18.561c0.395,5.38-2.763,10.389-7.788,12.351h-15.831L230.871,212.931L230.871,212.931z    M256.594,291.123c-8.016,11.873-25.722,13.536-25.722,13.536v-36.655c24.58-2.497,26.275,2.242,27.624,5.52   C260.1,277.306,259.962,285.71,256.594,291.123z"></path>			<radialGradient id="SVGID_6_" cx="-793.6451" cy="-30.1442" r="140.7492" gradientTransform="matrix(0.56 0 0 -0.56 638.45 237.38)" gradientUnits="userSpaceOnUse">		<stop offset="0" style="stop-color:#0C80E4"></stop>		<stop offset="1" style="stop-color:#020F58"></stop>	</radialGradient>	<path fill="url(#SVGID_6_)" d="M197.064,181.986v153.081c-7.895,0.011-15.77-0.789-23.502-2.385l-35.152-94.666v80.514   c-6.942-4.419-13.221-9.803-18.646-15.99l0.398-88.472c6.809-7.615,14.877-14.002,23.853-18.88l30.812,72.971v-84.032   C182.152,182.697,189.599,181.98,197.064,181.986z"></path></g></svg>